<svg width="2299" height="383" viewBox="0 0 2299 383" fill="none" xmlns="http://www.w3.org/2000/svg">
<path d="M60.1673 286.355H60.0173C4.74732 281.585 -0.352676 248.875 0.0173244 235.035V234.605V139.005V138.865C3.38732 95.8451 52.1773 95.3551 54.2473 95.3551H171.867V133.725H74.7573C65.3073 133.725 58.3873 135.905 54.2073 140.215C49.1373 145.435 49.3373 152.595 49.4073 154.955C49.4073 155.225 49.4173 155.445 49.4173 155.615V227.475C49.4173 246.565 75.7373 247.755 75.9973 247.755H171.857V286.365H60.1473L60.1673 286.355Z" fill="white"/>
<path d="M168.257 98.9551H54.2573C51.0473 98.9551 6.68733 100.025 3.63733 139.135V234.595C3.63733 237.985 0.227333 277.565 60.3173 282.745H168.257V251.365H76.0073C72.7973 251.365 45.8073 248.745 45.8073 227.475V155.615C45.8073 152.765 43.5473 130.115 74.7573 130.115H168.257V98.9651V98.9551Z" fill="white"/>
<path d="M510.437 286.355V0.775024L460.257 0.775024V286.355H510.437Z" fill="white"/>
<path d="M506.827 4.38501H463.877V282.745H506.827V4.38501Z" fill="white"/>
<path d="M605.697 286.355V0.775024L555.517 0.775024V286.355H605.697Z" fill="white"/>
<path d="M602.087 4.38501H559.137V282.745H602.087V4.38501Z" fill="white"/>
<path d="M1072.17 286.355V167.195C1072.17 146.995 1058.46 142.755 1046.95 142.755H965.817C958.847 142.755 958.847 145.665 958.847 147.405V286.355H909.067V0.775024H958.847V95.345H1056.94C1086.87 95.345 1102.47 108.025 1110.29 118.655C1118.71 130.105 1121.71 143.965 1121.71 153.105V286.355H1072.17Z" fill="white"/>
<path d="M912.677 4.38501V282.745H955.237V147.405C955.237 145.265 955.477 139.145 965.817 139.145H1046.95C1057.47 139.145 1075.78 142.775 1075.78 167.205V282.755H1118.1V153.115C1118.1 139.145 1109.9 98.965 1056.94 98.965H955.237V4.395H912.677V4.38501Z" fill="white"/>
<path d="M1227.83 286.355C1178.57 286.355 1161.1 259.045 1161.1 235.665V145.795C1161.1 110.945 1192.71 95.3451 1224.03 95.3451H1312.19C1343.51 95.3451 1375.12 110.945 1375.12 145.795V235.665C1375.12 259.045 1357.64 286.355 1308.38 286.355H1227.83ZM1238.65 133.715C1216.18 133.715 1211.59 147.465 1211.59 151.145V231.205C1211.59 241.095 1225.03 247.745 1237.58 247.745H1298.63C1311.18 247.745 1324.62 241.095 1324.62 231.205V151.145C1324.62 147.465 1320.03 133.715 1297.56 133.715H1238.65Z" fill="white"/>
<path d="M1312.18 98.9551H1224.02C1199.06 98.9551 1164.7 110.485 1164.7 145.795V235.665C1164.7 259.555 1182.89 282.745 1227.82 282.745H1308.37C1353.31 282.745 1371.49 259.565 1371.49 235.665V145.795C1371.49 110.485 1337.13 98.9551 1312.17 98.9551H1312.18ZM1328.23 231.205C1328.23 243.505 1312.89 251.355 1298.63 251.355H1237.58C1223.31 251.355 1207.98 243.505 1207.98 231.205V151.145C1207.98 145.975 1213.69 130.105 1238.65 130.105H1297.56C1322.52 130.105 1328.23 145.975 1328.23 151.145V231.205Z" fill="white"/>
<path d="M1572.89 286.355V161.965C1572.89 148.385 1559.76 142.755 1552.73 142.755H1481.88C1474.85 142.755 1461.72 148.395 1461.72 161.965V286.355H1411.7V148.175C1411.7 127.755 1428.3 95.3451 1472.85 95.3451H1561.77C1606.32 95.3451 1622.92 127.745 1622.92 148.175V286.355H1572.9H1572.89Z" fill="white"/>
<path d="M1561.76 98.9551H1472.84C1429.57 98.9551 1415.3 130.105 1415.3 148.175V282.745H1458.1V161.965C1458.1 145.795 1473.32 139.145 1481.88 139.145H1552.73C1561.29 139.145 1576.51 145.805 1576.51 161.965V282.745H1619.31V148.175C1619.31 130.105 1605.04 98.9551 1561.77 98.9551H1561.76Z" fill="white"/>
<path d="M650.387 382.215V142.415C650.387 123.495 665.107 95.3551 705.647 95.3551H805.857C827.177 95.3551 863.257 105.265 863.257 142.415V236.035C863.257 254.835 853.647 286.365 789.267 286.365H700.157V382.225H650.377L650.387 382.215ZM725.567 133.715C701.667 133.715 700.177 151.325 700.177 151.505V242.805C700.177 246.005 704.157 247.705 705.137 247.755H789.527C809.677 247.755 814.207 233.705 814.207 228.775V151.025C814.207 134.455 790.247 133.715 789.997 133.715H725.567Z" fill="white"/>
<path d="M805.867 98.9551H705.657C667.857 98.9551 654.007 124.395 654.007 142.405V378.595H696.567V282.735H789.297C846.177 282.735 859.677 257.595 859.677 236.015V142.395C859.677 104.595 819.797 98.9451 805.887 98.9451L805.867 98.9551ZM817.817 228.775C817.817 235.905 811.637 251.365 789.527 251.365H705.127C702.747 251.365 696.567 248.515 696.567 242.805V151.505C696.567 147.705 700.847 130.105 725.577 130.105H790.007C796.427 130.105 817.827 133.435 817.827 151.025V228.775H817.817Z" fill="white"/>
<path d="M271.207 286.355C235.207 286.355 210.057 265.215 210.057 234.955V147.935C210.057 126.295 219.777 110.455 238.177 102.115C253.127 95.3451 269.397 95.3451 274.737 95.3451H357.507C383.917 95.3451 402.627 102.075 413.117 115.355C422.457 127.165 422.457 140.835 422.457 145.325V209.805H259.357V219.985C259.357 231.605 262.587 239.645 268.957 243.885C274.207 247.375 280.697 247.775 285.127 247.775C285.687 247.775 286.217 247.775 286.687 247.765C287.107 247.765 287.487 247.765 287.837 247.765H422.447V286.375H271.187L271.207 286.355ZM372.177 172.145V148.835C372.177 139.375 359.497 133.725 347.227 133.725H289.987C264.557 133.725 259.357 147.615 259.357 151.335V172.155H372.167L372.177 172.145Z" fill="white"/>
<path d="M418.857 206.185V145.315C418.857 133.185 416.477 98.955 357.517 98.955H275.967C266.457 98.955 213.677 98.005 213.677 147.935V234.955C213.677 262.055 236.027 282.745 271.217 282.745H418.867V251.365H287.867C280.737 251.365 255.767 253.265 255.767 219.985V206.195H418.867L418.857 206.185ZM255.757 151.325C255.757 146.515 261.637 130.105 289.997 130.105H347.237C361.147 130.105 375.797 136.885 375.797 148.825V175.755H255.757V151.325Z" fill="white"/>
<path d="M1726.76 286.235C1690.76 286.235 1665.61 265.095 1665.61 234.835V147.815C1665.61 126.175 1675.34 110.335 1693.73 101.995C1708.68 95.2251 1724.95 95.2251 1730.29 95.2251H1813.06C1839.47 95.2251 1858.18 101.955 1868.67 115.235C1878.01 127.045 1878.01 140.715 1878.01 145.205V209.685H1714.91V219.865C1714.91 231.485 1718.14 239.525 1724.51 243.765C1729.76 247.255 1736.25 247.655 1740.68 247.655C1741.24 247.655 1741.77 247.655 1742.24 247.645C1742.66 247.645 1743.04 247.645 1743.39 247.645H1878.01V286.255H1726.75L1726.76 286.235ZM1827.97 172.145V148.835C1827.97 139.375 1815.29 133.725 1803.02 133.725H1745.78C1720.35 133.725 1715.16 147.615 1715.16 151.335V172.155H1827.97V172.145Z" fill="white"/>
<path d="M1874.41 206.065V145.195C1874.41 133.065 1872.03 98.835 1813.07 98.835H1731.52C1722.01 98.835 1669.23 97.885 1669.23 147.815C1669.23 158.275 1669.23 175.635 1669.23 175.635V234.835C1669.23 261.935 1691.58 282.625 1726.77 282.625H1874.42V251.245H1743.42C1736.29 251.245 1711.32 253.145 1711.32 219.865V206.075H1874.42L1874.41 206.065ZM1711.55 151.325C1711.55 146.515 1717.43 130.105 1745.79 130.105H1803.03C1816.94 130.105 1831.59 136.885 1831.59 148.825V175.755H1711.55V151.325Z" fill="white"/>
<path d="M1964.01 0.780029V382.22H2298.42V0.780029H1964.01ZM2295.5 379.29H1966.93V3.70003H2295.5V379.29Z" fill="#FAFAFA"/>
<path d="M2020.74 150.37V47.6001H2241.69V136.49L2210.55 97.9201H2071.06V121.43L2134.31 190.08L2130.27 195.86L2020.74 150.37Z" fill="white"/>
<path d="M2020.74 335.4V243.17L2055.37 285.07H2191.37V242.33L2129.81 171.74L2134.08 166.1L2241.69 216.92V335.4H2020.74Z" fill="white"/>
</svg>
