<?xml version="1.0" encoding="UTF-8"?>
<svg id="Layer_1" data-name="Layer 1" xmlns="http://www.w3.org/2000/svg" viewBox="0 0 913.34 173">
  <defs>
    <style>
      .cls-1 {
        fill: #fff;
      }
    </style>
  </defs>
  <path class="cls-1" d="M74.34,137.78v-8.28h-.27c-2.25,3.82-5.55,6.62-9.9,8.42-3.68,1.57-8.01,2.36-13,2.36-11.45,0-20.77-4-27.95-11.99-6.92-7.72-10.37-17.38-10.37-28.96s3.44-20.97,10.31-28.69c7.18-8.04,16.39-12.05,27.61-12.05,9.06,0,16.57,3.05,22.5,9.16v-32.08h22.9v102.1h-21.83ZM69.02,85.45c-3.69-3.63-8.29-5.45-13.82-5.45s-10.19,1.79-13.87,5.38c-3.72,3.64-5.58,8.24-5.58,13.8,0,8.34,1.76,10.33,5.32,14.01,3.59,3.78,8.21,5.66,13.87,5.66s10.39-1.87,14.08-5.59c3.63-3.73,5.45-8.42,5.45-14.08s-1.82-10.1-5.45-13.74h0ZM114.59,53.12v-17.45h22.9v17.45h-22.9ZM114.59,137.78V61.2h22.9v76.58h-22.9ZM231.82,106.46h-57.39c1.44,9.66,7.41,14.48,17.92,14.48,5.48,0,10.12-2.38,13.94-7.14h23.45c-3.41,7.94-8.31,14.28-14.69,18.99-6.78,4.98-14.34,7.48-22.69,7.48-11.17,0-20.72-3.98-28.62-11.92-7.96-7.91-11.92-17.45-11.92-28.62s3.89-20.86,11.65-28.89c7.86-8.17,17.35-12.26,28.49-12.26s21.26,4.09,29.02,12.26c7.59,8.04,11.38,17.89,11.38,29.57,0,2.2-.18,4.22-.53,6.06h-.01ZM209.46,91.04c-1.89-8.76-7.68-13.13-17.37-13.13s-15.49,4.38-17.37,13.13h34.75-.01ZM294.97,137.78v-41.82c0-4.98-.71-8.69-2.15-11.11-1.84-3.14-5.12-4.71-9.83-4.71-4.98,0-8.5,1.53-10.57,4.58-1.71,2.52-2.55,6.33-2.55,11.45v41.62h-22.9V61.2h21.35v8.15h.34c4.4-7.18,11.33-10.77,20.81-10.77,7.76,0,14.29,2.22,19.6,6.66,3.32,2.79,5.7,6.54,7.14,11.25,1.12,3.68,1.68,8.15,1.68,13.4v47.89h-22.92ZM363.51,78.58v59.2h-22.9v-59.2h-11.32v-17.38h11.32v-25.53h22.9v25.53h11.04v17.38h-11.04ZM434.34,137.78v-41.62c0-4.8-.82-8.51-2.42-11.11-2.02-3.28-5.33-4.92-9.9-4.92s-7.99,1.43-10.1,4.31c-1.79,2.47-2.69,6.08-2.69,10.85v42.49h-22.9V35.67h22.9v32.6h.27c1.88-3.37,4.71-5.88,8.48-7.54,3.23-1.44,6.98-2.15,11.25-2.15,9.07,0,16.01,2.81,20.81,8.42,3.27,3.78,5.38,8.19,6.32,13.27.41,2.02.65,4.4.74,7.14.05,1.08.1,2.34.14,3.77v46.61h-22.9ZM542.48,128.55c-7.85,7.72-17.67,11.58-29.43,11.58s-21.55-3.86-29.36-11.58c-7.9-7.72-11.85-17.42-11.85-29.1,0-17.52,3.95-21.44,11.85-29.16,7.81-7.73,17.6-11.58,29.36-11.58s21.58,3.86,29.43,11.58c7.91,7.72,11.85,17.44,11.85,29.16s-3.95,21.38-11.85,29.1M526.25,85.92c-3.55-3.86-7.95-5.79-13.2-5.79-7.88,0-9.59,1.93-13.13,5.79-3.46,3.73-5.19,8.24-5.19,13.54s1.73,9.77,5.19,13.54c3.54,3.82,7.92,5.72,13.13,5.72s9.65-1.91,13.2-5.72c3.45-3.77,5.18-8.28,5.18-13.54s-1.73-9.81-5.18-13.54M626.64,137.78v-8.28h-.27c-1.93,3.69-5.14,6.49-9.63,8.42-3.86,1.66-8.1,2.49-12.73,2.49-11.55,0-20.91-3.97-28.09-11.92-6.91-7.73-10.37-17.4-10.37-29.03s3.53-21.06,10.58-28.82c7.32-8.04,16.61-12.05,27.88-12.05,4.58,0,8.8.85,12.66,2.56,4.3,1.88,7.54,4.62,9.69,8.21h.27v-8.15h22.9v76.58h-22.9.01ZM621.19,85.51c-3.64-3.68-8.25-5.52-13.81-5.52s-10.07,1.93-13.66,5.79c-3.51,3.73-5.26,8.38-5.26,13.94s1.82,9.88,5.46,13.61c3.73,3.77,8.26,5.66,13.61,5.66s10.1-1.86,13.74-5.59c3.59-3.72,5.38-8.37,5.38-13.94s-1.81-10.26-5.45-13.94h-.01ZM668.11,53.12v-17.45h22.9v17.45h-22.9ZM668.11,137.78V61.2h22.9v76.58h-22.9ZM752.88,137.78h-21.9l-27.47-76.58h23.7l14.62,47.75h.27l14.68-47.75h23.7l-27.61,76.58h0ZM842.23,137.78v-8.14h-.27c-1.89,3.9-4.63,6.71-8.22,8.42-3.09,1.48-6.98,2.22-11.65,2.22-9.74,0-17.24-3.21-22.49-9.63-2.88-3.6-4.79-7.32-5.73-11.18-.76-2.91-1.14-7.07-1.14-12.46v-45.8h22.9v42.36c0,4.94.76,8.57,2.29,10.91,1.88,2.92,5.21,4.38,9.97,4.38,8.75,0,13.13-5.19,13.13-15.56v-42.1h22.9v76.58h-21.69ZM882.34,53.12v-17.45h22.9v17.45h-22.9ZM882.34,137.78V61.2h22.9v76.58h-22.9Z"/>
</svg>