<svg width="21" height="20" viewBox="0 0 21 20" fill="none" xmlns="http://www.w3.org/2000/svg">
<g clip-path="url(#clip0_6_51)">
<g clip-path="url(#clip1_6_51)">
<path d="M3.975 0.101327C4.65974 -0.00665471 5.35613 -0.00730131 6.04799 0.008217L5.9885 0.0631777C5.08326 0.656106 4.33257 1.47017 3.79007 2.4045C2.7025 4.27511 2.30613 6.48711 2.39601 8.63122C2.48524 10.377 2.90424 12.1325 3.79266 13.6501C3.94138 13.9217 4.18902 14.1616 4.1929 14.4913C4.22071 15.1987 3.8709 15.8653 3.39759 16.371C3.42863 16.4033 3.45902 16.4356 3.49005 16.468C3.93297 16.9516 4.40563 17.4062 4.85566 17.8834C5.49515 18.6063 6.22386 19.2464 6.85041 19.9822C5.8081 19.9977 4.7535 20.0462 3.72347 19.8516C2.42705 19.6001 1.27611 18.7013 0.7265 17.4999C0.393503 16.8055 0.293927 16.0289 0.268063 15.2679C0.267416 11.7543 0.267416 8.24133 0.268063 4.72837C0.282288 3.55415 0.593301 2.32562 1.41965 1.45465C2.07401 0.716886 3.00058 0.237112 3.975 0.101327Z" fill="#0068FF"/>
<path d="M13.4688 6.55322C13.7462 6.55322 14.0235 6.55322 14.3016 6.55322C14.2971 8.17812 14.2971 9.80366 14.3016 11.4286C14.03 11.3904 13.578 11.5643 13.4759 11.2029C13.4591 9.65365 13.4746 8.10311 13.4688 6.55322Z" fill="#0068FF"/>
<path d="M4.98256 6.61075C6.27316 6.60946 7.56248 6.60105 8.85244 6.6101C8.84339 6.86292 8.82916 7.13837 8.65975 7.3427C7.77779 8.44062 6.91459 9.55276 6.03328 10.6507C6.9702 10.6565 7.90711 10.6526 8.84403 10.6526C8.82657 10.8718 8.90352 11.1272 8.76127 11.3173C8.67204 11.4402 8.51039 11.4292 8.37654 11.4305C7.20426 11.424 6.03198 11.4363 4.86035 11.424C4.86358 11.1764 4.86617 10.9022 5.03946 10.705C5.91107 9.6116 6.79303 8.52597 7.66076 7.42999C6.7691 7.43128 5.8768 7.42417 4.98514 7.43387C4.97933 7.15971 4.98127 6.88491 4.98256 6.61075Z" fill="#0068FF"/>
<path d="M16.3659 7.68665C17.2944 7.47909 18.3018 8.08883 18.5559 9.00312C18.8747 9.95426 18.2927 11.0852 17.3313 11.3748C16.5146 11.6626 15.5369 11.2869 15.1134 10.5343C14.7811 9.97818 14.761 9.25012 15.063 8.67788C15.319 8.17289 15.8137 7.80368 16.3659 7.68665ZM16.3504 8.51041C15.7839 8.71021 15.4788 9.39948 15.6999 9.9562C15.8829 10.4825 16.4991 10.8045 17.0345 10.6429C17.6455 10.4968 18.0147 9.78097 17.7981 9.19451C17.617 8.61387 16.9155 8.27893 16.3504 8.51041Z" fill="#0068FF"/>
<path d="M9.48685 8.36347C9.93364 7.80998 10.716 7.53712 11.4053 7.73433C11.6329 7.79188 11.8392 7.90568 12.0383 8.02659C12.0364 7.96581 12.0318 7.8449 12.0299 7.78412C12.2905 7.78283 12.5504 7.78347 12.811 7.78218C12.8097 8.99778 12.8084 10.2134 12.8116 11.4296C12.6203 11.4245 12.4256 11.4471 12.2375 11.4083C12.1056 11.3546 12.0648 11.2104 12.0125 11.0928C11.2934 11.6514 10.1638 11.5247 9.56638 10.8445C8.92948 10.1856 8.8965 9.06309 9.48685 8.36347ZM10.5395 8.52641C9.94076 8.7372 9.65043 9.50859 9.95369 10.0647C10.2123 10.6065 10.9404 10.8341 11.4609 10.5354C11.9439 10.2819 12.167 9.65278 11.9594 9.14973C11.7583 8.60271 11.0801 8.29623 10.5395 8.52641Z" fill="#0068FF"/>
<path d="M5.98858 0.0632348C6.13342 0.0218526 6.28472 0.00892071 6.43473 0.00439453C9.02047 0.0140935 11.6062 0.00310134 14.1919 0.00762751C14.8832 0.0160333 15.5782 -0.0305217 16.2643 0.0748735C17.2141 0.147292 18.1284 0.549475 18.8352 1.18508C19.7223 2.03277 20.1956 3.25354 20.2105 4.47108C20.2111 7.89869 20.2092 11.3289 20.2124 14.7552C20.2034 14.7752 20.1859 14.8166 20.1768 14.8373C19.2554 15.868 18.0166 16.5657 16.7214 17.017C14.9763 17.6119 13.107 17.8033 11.2726 17.6636C9.43817 17.5058 7.58955 17.0267 6.03384 16.0128C5.23853 16.3665 4.3611 16.5398 3.49013 16.468C3.4591 16.4357 3.42871 16.4034 3.39767 16.371C3.87098 15.8654 4.22079 15.1988 4.19298 14.4914C4.1891 14.1616 3.94146 13.9217 3.79274 13.6502C2.90432 12.1326 2.48532 10.3771 2.39609 8.63128C2.30621 6.48717 2.70258 4.27516 3.79015 2.40456C4.33265 1.47023 5.08335 0.656164 5.98858 0.0632348ZM13.4684 6.55312C13.4742 8.10301 13.4587 9.65355 13.4755 11.2028C13.5777 11.5642 14.0297 11.3903 14.3012 11.4285C14.2967 9.80356 14.2967 8.17802 14.3012 6.55312C14.0232 6.55312 13.7458 6.55312 13.4684 6.55312ZM4.98248 6.61067C4.98118 6.88483 4.97924 7.15963 4.98506 7.43379C5.87672 7.42409 6.76902 7.4312 7.66068 7.42991C6.79295 8.52589 5.91099 9.61152 5.03938 10.7049C4.86609 10.9021 4.8635 11.1763 4.86027 11.4239C6.0319 11.4362 7.20418 11.4239 8.37646 11.4304C8.51031 11.4291 8.67195 11.4401 8.76119 11.3172C8.90344 11.1271 8.82649 10.8717 8.84395 10.6525C7.90703 10.6525 6.97011 10.6564 6.0332 10.6506C6.91451 9.55268 7.77771 8.44054 8.65967 7.34262C8.82908 7.13829 8.8433 6.86284 8.85236 6.61002C7.5624 6.60097 6.27308 6.60938 4.98248 6.61067ZM16.3658 7.68661C15.8136 7.80364 15.319 8.17285 15.0629 8.67784C14.761 9.25008 14.781 9.97814 15.1133 10.5342C15.5369 11.2869 16.5145 11.6625 17.3312 11.3748C18.2927 11.0851 18.8746 9.95422 18.5558 9.00308C18.3017 8.08879 17.2943 7.47905 16.3658 7.68661ZM9.48731 8.36359C8.89697 9.06321 8.92995 10.1857 9.56684 10.8446C10.1643 11.5248 11.2939 11.6515 12.0129 11.0929C12.0653 11.2106 12.106 11.3547 12.2379 11.4084C12.4261 11.4472 12.6207 11.4246 12.8121 11.4298C12.8089 10.2135 12.8102 8.9979 12.8115 7.7823C12.5509 7.7836 12.291 7.78295 12.0304 7.78424C12.0323 7.84502 12.0368 7.96594 12.0388 8.02672C11.8396 7.9058 11.6334 7.792 11.4058 7.73445C10.7165 7.53724 9.93411 7.81011 9.48731 8.36359Z" fill="white"/>
<path d="M10.5403 8.52648C11.0808 8.29629 11.7591 8.60278 11.9602 9.1498C12.1678 9.65285 11.9447 10.282 11.4617 10.5355C10.9412 10.8342 10.2131 10.6066 9.95446 10.0647C9.65121 9.50866 9.94153 8.73727 10.5403 8.52648Z" fill="white"/>
<path d="M16.3508 8.51048C16.9159 8.279 17.6174 8.61394 17.7985 9.19458C18.0151 9.78104 17.6459 10.4968 17.0349 10.643C16.4995 10.8046 15.8833 10.4826 15.7003 9.95627C15.4792 9.39955 15.7843 8.71028 16.3508 8.51048Z" fill="white"/>
<path d="M20.1769 14.8373L20.228 14.7817C20.2545 15.7924 20.1453 16.847 19.6493 17.7464C19.0726 18.8016 18.0264 19.5853 16.8496 19.8362C16.1894 19.9726 15.5124 20.003 14.8399 19.9946C12.7715 19.9952 10.703 19.9946 8.63455 19.9952C8.03969 19.9855 7.44352 20.0133 6.85059 19.9823C6.22404 19.2465 5.49533 18.6064 4.85585 17.8835C4.40581 17.4063 3.93315 16.9517 3.49023 16.4681C4.3612 16.5398 5.23863 16.3665 6.03394 16.0129C7.58965 17.0267 9.43827 17.5058 11.2727 17.6636C13.1071 17.8033 14.9764 17.6119 16.7215 17.017C18.0167 16.5657 19.2555 15.868 20.1769 14.8373Z" fill="#005BE0"/>
</g>
</g>
<defs>
<clipPath id="clip0_6_51">
<rect width="20.0001" height="20" fill="white" transform="translate(0.25)"/>
</clipPath>
<clipPath id="clip1_6_51">
<rect width="20" height="20" fill="white" transform="translate(0.25)"/>
</clipPath>
</defs>
</svg>
